<?xml version="1.0" encoding="utf-8"?>
<!-- Generator: Adobe Illustrator 16.0.0, SVG Export Plug-In . SVG Version: 6.00 Build 0)  -->
<!DOCTYPE svg PUBLIC "-//W3C//DTD SVG 1.1//EN" "http://www.w3.org/Graphics/SVG/1.1/DTD/svg11.dtd">
<svg version="1.1" id="Capa_1" xmlns="http://www.w3.org/2000/svg" xmlns:xlink="http://www.w3.org/1999/xlink" x="0px" y="0px"
	 width="25px" height="25px" viewBox="-2.5 -2.5 25 25" enable-background="new -2.5 -2.5 25 25" xml:space="preserve">
<g>
	<g>
		<path fill="#595959" d="M42.967,34.66h3.646l3.701,11.786c0.124,0.396,0.49,0.665,0.906,0.665h11.553
			c0.524,0,0.947-0.427,0.947-0.949c0-0.525-0.423-0.948-0.947-0.948H51.917l-0.741-2.359h11.857c0.833,0,1.593-0.613,1.771-1.425
			l1.092-4.982c0.103-0.461-0.003-0.928-0.285-1.279c-0.284-0.351-0.715-0.552-1.188-0.552H48.59l-0.374-1.188
			c-0.124-0.396-0.491-0.665-0.905-0.665h-4.344c-0.523,0-0.949,0.425-0.949,0.948S42.443,34.66,42.967,34.66z M62.976,40.959
			l-12.333,0.002c-0.012-0.004-0.031-0.018-0.039-0.018c-0.002,0-0.004,0.003-0.004,0.007l-0.415-1.267h13.069L62.976,40.959z
			 M49.186,36.514h14.756l-0.275,1.273H49.584h-0.021l-0.42-1.273H49.186z"/>
		<circle fill="#595959" cx="52.479" cy="49.334" r="1.347"/>
		<circle fill="#595959" cx="60.819" cy="49.334" r="1.347"/>
	</g>
</g>
<g>
	<g>
		<g>
			<path fill="#595959" d="M7.836,16.261c-1.059,0-1.92,0.861-1.92,1.92c0,1.06,0.861,1.921,1.92,1.921
				c1.059,0,1.92-0.861,1.92-1.921C9.756,17.122,8.895,16.261,7.836,16.261z M7.836,19.029c-0.467,0-0.848-0.381-0.848-0.849
				c0-0.467,0.38-0.848,0.848-0.848c0.468,0,0.848,0.381,0.848,0.848C8.684,18.648,8.304,19.029,7.836,19.029z"/>
		</g>
	</g>
	<g>
		<g>
			<path fill="#595959" d="M14.57,16.261c-1.059,0-1.92,0.861-1.92,1.92c0,1.06,0.861,1.921,1.92,1.921s1.92-0.861,1.92-1.921
				C16.49,17.122,15.629,16.261,14.57,16.261z M14.57,19.029c-0.468,0-0.847-0.381-0.847-0.849c0-0.467,0.379-0.848,0.847-0.848
				c0.469,0,0.848,0.381,0.848,0.848C15.418,18.648,15.039,19.029,14.57,19.029z"/>
		</g>
	</g>
	<g>
		<g>
			<path fill="#595959" d="M15.043,6.152H7.362c-0.296,0-0.536,0.24-0.536,0.536c0,0.296,0.24,0.536,0.536,0.536h7.681
				c0.296,0,0.537-0.24,0.537-0.536C15.58,6.392,15.339,6.152,15.043,6.152z"/>
		</g>
	</g>
	<g>
		<g>
			<path fill="#595959" d="M14.625,8.936H7.78c-0.296,0-0.536,0.24-0.536,0.536c0,0.296,0.24,0.536,0.536,0.536h6.845
				c0.296,0,0.537-0.24,0.537-0.536C15.162,9.175,14.921,8.936,14.625,8.936z"/>
		</g>
	</g>
	<g>
		<g>
			<path fill="#595959" d="M20.272,3.764c-0.204-0.251-0.507-0.395-0.831-0.395H2.744L2.407,1.732
				C2.337,1.39,2.104,1.104,1.784,0.965l-2.353-1.021C-0.84-0.175-1.156-0.05-1.274,0.222c-0.118,0.271,0.007,0.586,0.278,0.705
				l2.354,1.021l2.594,12.591c0.102,0.495,0.543,0.854,1.05,0.854h12.841c0.297,0,0.538-0.239,0.538-0.536
				c0-0.295-0.241-0.536-0.538-0.536H5.001l-0.315-1.53h13.257c0.505,0,0.948-0.36,1.049-0.856l1.5-7.277
				C20.557,4.34,20.478,4.014,20.272,3.764z M17.942,11.719H4.465l-1.5-7.278h16.476L17.942,11.719z"/>
		</g>
	</g>
</g>
<g>
	<g>
		<path d="M-23.76-6.096h2.121l3.021,10.926c0.086,0.32,0.382,0.542,0.715,0.542h9.286c0.296,0,0.555-0.173,0.678-0.444l3.379-7.769
			c0.1-0.234,0.074-0.493-0.061-0.703c-0.137-0.21-0.371-0.333-0.617-0.333h-10.26c-0.407,0-0.74,0.333-0.74,0.74
			c0,0.407,0.333,0.74,0.74,0.74h9.125l-2.737,6.29h-8.237l-3.021-10.926c-0.086-0.321-0.382-0.543-0.715-0.543h-2.676
			c-0.407,0-0.74,0.333-0.74,0.74C-24.5-6.429-24.167-6.096-23.76-6.096z"/>
		<path d="M-18.605,10.576c0.925,0,1.677-0.752,1.677-1.678c0-0.924-0.752-1.677-1.677-1.677s-1.677,0.753-1.677,1.677
			C-20.283,9.824-19.53,10.576-18.605,10.576z"/>
		<path d="M-8.124,10.576c0.037,0,0.087,0,0.124,0c0.443-0.037,0.851-0.234,1.146-0.58c0.296-0.332,0.432-0.764,0.406-1.221
			C-6.508,7.863-7.311,7.16-8.234,7.222C-9.16,7.283-9.85,8.098-9.789,9.01C-9.727,9.885-9,10.576-8.124,10.576z"/>
	</g>
</g>
</svg>
