<?xml version="1.0" encoding="utf-8"?>
<!-- Generator: Adobe Illustrator 16.0.0, SVG Export Plug-In . SVG Version: 6.00 Build 0)  -->
<!DOCTYPE svg PUBLIC "-//W3C//DTD SVG 1.1//EN" "http://www.w3.org/Graphics/SVG/1.1/DTD/svg11.dtd">
<svg version="1.1" id="Layer_1" xmlns="http://www.w3.org/2000/svg" xmlns:xlink="http://www.w3.org/1999/xlink" x="0px" y="0px"
	 width="20px" height="25px" viewBox="0 -2.5 20 25" enable-background="new 0 -2.5 20 25" xml:space="preserve">
<g id="Exit_1_">
	<path fill="#595959" d="M18.329,8.772l-1.901-1.899c-0.142-0.144-0.375-0.144-0.52,0c-0.142,0.144-0.142,0.376,0,0.52l1.262,1.26
		h-5.369v0.76h5.369l-1.262,1.257c-0.142,0.146-0.142,0.378,0,0.521c0.073,0.071,0.166,0.107,0.262,0.107
		c0.093,0,0.188-0.036,0.258-0.107l1.901-1.899c0.068-0.069,0.106-0.163,0.106-0.26S18.397,8.842,18.329,8.772z"/>
	<path fill="#595959" d="M13.699,12.831c-0.21,0-0.379,0.17-0.379,0.381v4.1c0,0.396-0.315,0.839-0.738,0.839h-2.301V2.113V1.591
		L9.806,1.389L3.748-1.183L3.65-1.225h8.932c0.462,0,0.738,0.376,0.738,0.74v5.718c0,0.21,0.169,0.38,0.379,0.38
		s0.382-0.17,0.382-0.38v-5.718c0-0.827-0.672-1.5-1.499-1.5H3.061c-0.198,0-0.356,0.152-0.374,0.347L2.681-1.642v0.036v20.358
		l6.529,2.774l1.07,0.459v-1.176v-1.9h2.301c0.895,0,1.499-0.828,1.499-1.599v-4.1C14.081,13.001,13.909,12.831,13.699,12.831z
		 M9.521,2.113v18.698l-6.079-2.574V-0.465l6.075,2.573l0.004,0.002V2.113z"/>
</g>
</svg>
